<svg xmlns="http://www.w3.org/2000/svg" viewBox="0 0 164 164"><defs><style>.a{fill:#fff;}</style></defs><title>Sem título-1</title><circle cx="82" cy="82" r="82"/><path class="a" d="M21,32.4H33.3V117H73.86v10.28H21Z"/><path class="a" d="M148.35,124.22c-4.51,2.25-13.52,4.51-25.07,4.51-26.76,0-46.89-16.9-46.89-48C76.39,51,96.53,30.85,126,30.85c11.83,0,19.29,2.53,22.53,4.22l-3,10a44.63,44.63,0,0,0-19.15-3.94c-22.25,0-37,14.22-37,39.15,0,23.24,13.38,38.16,36.47,38.16,7.46,0,15.07-1.55,20-3.94Z"/></svg>