<?xml version="1.0" encoding="utf-8"?>
<!-- Generator: Adobe Illustrator 21.1.0, SVG Export Plug-In . SVG Version: 6.00 Build 0)  -->
<svg version="1.1" id="Layer_1" xmlns="http://www.w3.org/2000/svg" xmlns:xlink="http://www.w3.org/1999/xlink" x="0px" y="0px"
	 viewBox="0 0 95 46" style="enable-background:new 0 0 95 46;" xml:space="preserve">
<style type="text/css">
	.st0{fill:#FFFFFF;}
</style>
<g>
	<g>
		<path d="M11.4,49.7l-0.7,1h1.6v1.2c-0.4,0.3-0.9,0.5-1.5,0.5c-1.3,0-2.1-1-2.1-2.2v0c0-1.2,0.9-2.2,2-2.2c0.8,0,1.3,0.3,1.8,0.7
			l0.7-0.8c-0.6-0.5-1.3-0.9-2.4-0.9c-1.1,0-1.9,0.5-2.5,1.2l-0.5-1.2H6.5l-2.7,6.4v-5.1h1.9l0.5-1.3H0v1.3h2.3v5.1h2.8l0.4-0.9
			l0.7-1.8l0,0l0.8-2.1l0.5,1.1c0,0.1,0,0.3,0,0.4v0c0,1.8,1.3,3.2,3.3,3.2c1.1,0,2-0.5,2.6-1v-2.7H11.4z"/>
	</g>
</g>
<path class="st0" d="M82.1,20.2c-7-2.4-10.1-4.4-10.1-8.5c0-3,2.6-6.6,9.5-6.6c4.6,0,8,1.3,9.6,2.1L93,2.5c-2.3-1.1-6-2.2-11.2-2.2
	c-9.8,0-16.4,5.1-16.4,12c0,6.2,5.1,10,13.4,12.6c6.8,2.3,9.5,4.7,9.5,8.8c0,4.5-3.9,7.6-10.6,7.6c-4.2,0-8.3-1.2-11.2-2.6l-15-38.4
	h-8.1L27.8,40.7H7.5V0.2H0v45.5h32.5v0h0.4l5.4-14.3h18.4l5.5,14.3h7.2L69,44.9c2.5,0.7,5.5,1.1,8.3,1.1C89.2,46,95,40.1,95,33.2
	C95,26.7,90.6,23.1,82.1,20.2z M39.6,26.8l5.1-13.2c1-2.8,1.8-5.5,2.6-8.2h0.2c0.8,2.6,1.5,5.3,2.7,8.3l5.1,13.1H39.6z"/>
</svg>
