<?xml version="1.0" encoding="utf-8"?>
<!-- Generator: Adobe Illustrator 21.1.0, SVG Export Plug-In . SVG Version: 6.00 Build 0)  -->
<svg version="1.1" id="Layer_1" xmlns="http://www.w3.org/2000/svg" xmlns:xlink="http://www.w3.org/1999/xlink" x="0px" y="0px"
	 viewBox="0 0 47.8 47.8" style="enable-background:new 0 0 47.8 47.8;" xml:space="preserve">
<style type="text/css">
	.st0{fill:url(#XMLID_3_);}
	.st1{fill:url(#SVGID_1_);}
</style>
<linearGradient id="XMLID_3_" gradientUnits="userSpaceOnUse" x1="6.9792" y1="-4.3734" x2="13.3412" y2="-9.352935e-02" gradientTransform="matrix(1 0 0 -1 0 50)">
	<stop  offset="0" style="stop-color:#84C77D"/>
	<stop  offset="1" style="stop-color:#42B7CF"/>
</linearGradient>
<path id="XMLID_1_" class="st0" d="M10.2,48.4c-2.1,0-3.8,1.7-3.8,3.8s1.7,3.8,3.8,3.8s3.8-1.7,3.8-3.8S12.3,48.4,10.2,48.4z
	 M11.8,53.7c-0.9,0-1.4-0.6-1.4-1.4l0,0c0-0.1,0-0.1,0-0.2l-0.2-0.5l-0.4,0.9l0,0l-0.3,0.8l0,0l-0.2,0.4H8.7h0H8.1v-2.2h-1v-0.6h2.7
	l-0.3,0.6H8.7v2.2l1.2-2.8h0.6l0.2,0.5c0.3-0.3,0.6-0.5,1.1-0.5c0.5,0,0.8,0.1,1.1,0.4l-0.3,0.4c-0.2-0.2-0.4-0.3-0.8-0.3
	c-0.5,0-0.9,0.4-0.9,1l0,0c0,0.6,0.4,1,0.9,1c0.3,0,0.5-0.1,0.7-0.2v-0.5h-0.7l0.3-0.4H13v1.2C12.7,53.5,12.3,53.7,11.8,53.7z"/>
<linearGradient id="SVGID_1_" gradientUnits="userSpaceOnUse" x1="3.9718" y1="37.3062" x2="43.6366" y2="10.6227">
	<stop  offset="0" style="stop-color:#84C77D"/>
	<stop  offset="1" style="stop-color:#42B7CF"/>
</linearGradient>
<path class="st1" d="M23.9,16L23.9,16c-0.4,1.2-0.8,2.5-1.2,3.7l-2.3,5.9h7l-2.3-5.9C24.6,18.3,24.2,17.1,23.9,16z M23.9,0
	C10.7,0,0,10.7,0,23.9c0,13.2,10.7,23.9,23.9,23.9c13.2,0,23.9-10.7,23.9-23.9C47.8,10.7,37.1,0,23.9,0z M37.3,34.2
	c-1.3,0-2.6-0.2-3.7-0.5l0.1,0.3h-3.2L28,27.6h-8.3L17.3,34h-0.2v0H2.6V13.6H6v18.2h9.1l7.1-18.2h3.6l6.7,17.2
	c1.3,0.7,3.1,1.2,5,1.2c3,0,4.7-1.4,4.7-3.4c0-1.9-1.2-2.9-4.3-4c-3.7-1.2-6-2.8-6-5.6c0-3.1,2.9-5.4,7.3-5.4c2.3,0,4,0.5,5,1
	l-0.8,2.1c-0.7-0.4-2.3-0.9-4.3-0.9c-3.1,0-4.3,1.6-4.3,3c0,1.9,1.4,2.8,4.5,3.8c3.8,1.3,5.8,2.9,5.8,5.8
	C45.2,31.5,42.6,34.2,37.3,34.2z"/>
</svg>
